<svg width="312" height="312" viewBox="0 0 312 312" fill="none" xmlns="http://www.w3.org/2000/svg">
<path d="M261.779 158.583H250.166C247.565 158.583 245.457 156.475 245.457 153.875C245.457 151.275 247.565 149.167 250.166 149.167H261.779C264.379 149.167 266.487 151.275 266.487 153.875C266.487 156.475 264.379 158.583 261.779 158.583Z" fill="#AC5539"/>
<path d="M243.447 135.29C242.242 135.29 241.036 134.83 240.118 133.911C238.278 132.072 238.278 129.091 240.118 127.252L247.627 119.742C249.466 117.904 252.447 117.904 254.286 119.742C256.125 121.581 256.125 124.562 254.286 126.401L246.776 133.911C245.857 134.83 244.651 135.29 243.447 135.29Z" fill="#AC5539"/>
<path d="M240.553 208.805C238.93 208.805 237.351 207.966 236.477 206.461L229.981 195.281C228.675 193.032 229.439 190.151 231.687 188.845C233.934 187.538 236.817 188.301 238.123 190.55L244.619 201.73C245.925 203.979 245.161 206.861 242.913 208.167C242.169 208.599 241.356 208.805 240.553 208.805Z" fill="#AC5539"/>
<path d="M234.052 132.217C231.452 132.217 229.344 130.109 229.344 127.509V116.551C229.344 113.951 231.452 111.843 234.052 111.843C236.653 111.843 238.76 113.951 238.76 116.551V127.509C238.76 130.109 236.653 132.217 234.052 132.217Z" fill="#AC5539"/>
<path d="M252.048 143.935V167.752C252.048 184.513 238.458 198.104 221.696 198.104H174.017V162.849H216.8V143.935C216.8 139.069 218.771 134.662 221.96 131.467C225.149 128.278 229.556 126.307 234.421 126.307C244.157 126.307 252.048 134.198 252.048 143.935Z" fill="#AC5539"/>
<path d="M174.017 162.849H197.093V198.104H174.017V162.849Z" fill="#AC5539"/>
<path d="M99.1874 146.97C96.5872 146.97 94.4794 144.862 94.4794 142.262V132.484C94.4794 129.884 96.5872 127.776 99.1874 127.776C101.788 127.776 103.895 129.884 103.895 132.484V142.262C103.895 144.861 101.788 146.97 99.1874 146.97Z" fill="#AC5539"/>
<path d="M90.4678 70.9708C89.2631 70.9708 88.0577 70.5113 87.1388 69.5917C85.2997 67.7527 85.2997 64.7722 87.1388 62.9331L95.4025 54.6694C97.2416 52.8303 100.223 52.8303 102.061 54.6694C103.9 56.5085 103.9 59.4889 102.061 61.328L93.7974 69.5917C92.8779 70.5113 91.6725 70.9708 90.4678 70.9708Z" fill="#AC5539"/>
<path d="M65.5846 95.1788H53.9882C51.388 95.1788 49.2802 93.0709 49.2802 90.4707C49.2802 87.8705 51.388 85.7627 53.9882 85.7627H65.5846C68.1848 85.7627 70.2926 87.8705 70.2926 90.4707C70.2926 93.0709 68.1848 95.1788 65.5846 95.1788Z" fill="#AC5539"/>
<path d="M141.103 97.8627V133.112H93.4245C76.663 133.112 63.0721 119.521 63.0721 102.76V78.9422C63.0721 69.2056 70.9629 61.3142 80.6995 61.3142C85.5648 61.3142 89.9718 63.2855 93.1667 66.4744C96.3556 69.6633 98.3269 74.0703 98.3269 78.9416V97.8627H141.103Z" fill="#AC5539"/>
<path d="M114.906 97.8623H141.103V133.112H114.906V97.8623Z" fill="#AC5539"/>
<path d="M175.395 49.2738C174.19 49.2738 172.985 48.8137 172.066 47.8948C170.227 46.0563 170.227 43.0753 172.066 41.2362L182.504 30.7988C184.342 28.9603 187.323 28.9603 189.162 30.7988C191.001 32.6373 191.001 35.6183 189.162 37.4574L178.725 47.8948C177.805 48.8143 176.6 49.2738 175.395 49.2738Z" fill="#AC5539"/>
<path d="M135.654 48.3232C134.449 48.3232 133.244 47.8631 132.325 46.9442L122.838 37.4574C120.999 35.6189 120.999 32.6379 122.838 30.7988C124.676 28.9603 127.657 28.9603 129.496 30.7988L138.983 40.2855C140.822 42.124 140.822 45.1051 138.983 46.9442C138.064 47.8631 136.859 48.3232 135.654 48.3232Z" fill="#AC5539"/>
<path d="M156 39.6932C153.4 39.6932 151.292 37.5854 151.292 34.9852V22.5467C151.292 19.9465 153.4 17.8386 156 17.8386C158.6 17.8386 160.708 19.9465 160.708 22.5467V34.9852C160.708 37.5854 158.6 39.6932 156 39.6932Z" fill="#AC5539"/>
<path d="M195.549 76.1363H182.366C179.766 76.1363 177.658 74.0285 177.658 71.4283C177.658 68.828 179.766 66.7202 182.366 66.7202H195.549C198.149 66.7202 200.257 68.828 200.257 71.4283C200.258 74.0279 198.15 76.1363 195.549 76.1363Z" fill="#AC5539"/>
<path d="M195.549 119.243H182.366C179.766 119.243 177.658 117.135 177.658 114.535C177.658 111.935 179.766 109.827 182.366 109.827H195.549C198.149 109.827 200.257 111.935 200.257 114.535C200.257 117.135 198.15 119.243 195.549 119.243Z" fill="#AC5539"/>
<path d="M126.286 184.041H115.614C113.013 184.041 110.906 181.933 110.906 179.333C110.906 176.733 113.013 174.625 115.614 174.625H126.286C128.886 174.625 130.994 176.733 130.994 179.333C130.994 181.932 128.886 184.041 126.286 184.041Z" fill="#AC5539"/>
<path d="M126.286 227.934H115.614C113.013 227.934 110.906 225.826 110.906 223.226C110.906 220.626 113.013 218.518 115.614 218.518H126.286C128.886 218.518 130.994 220.626 130.994 223.226C130.994 225.826 128.886 227.934 126.286 227.934Z" fill="#AC5539"/>
<path d="M185.794 60.1216V277.417H149.095V63.2598C149.095 55.0363 145.761 47.5843 140.369 42.1919C138.937 40.7605 137.356 39.4735 135.654 38.3565C140.978 33.3785 148.14 30.3335 156 30.3335C164.224 30.3335 171.676 33.6668 177.068 39.0591C182.46 44.446 185.794 51.8974 185.794 60.1216Z" fill="#AC5539"/>
<path d="M177.068 39.0599C171.676 33.6675 164.224 30.3342 156 30.3342C153.728 30.3342 151.517 30.5853 149.389 31.0685C154.977 32.3238 159.974 35.1489 163.885 39.0599C169.277 44.4461 172.611 51.8976 172.611 60.1217V258.593L167.548 259.403C166.713 259.537 165.861 259.487 165.047 259.259C152.288 255.69 139.336 252.553 126.206 249.845V277.417H172.611H185.794V254.623V60.1217C185.794 51.8976 182.46 44.4461 177.068 39.0599Z" fill="#AC5539"/>
<path d="M164.318 89.8426H153.332C150.732 89.8426 148.624 87.7347 148.624 85.1345C148.624 82.5343 150.732 80.4265 153.332 80.4265H164.318C166.918 80.4265 169.026 82.5343 169.026 85.1345C169.026 87.7347 166.918 89.8426 164.318 89.8426Z" fill="#AC5539"/>
<path d="M164.318 130.334H153.332C150.732 130.334 148.624 128.226 148.624 125.626C148.624 123.026 150.732 120.918 153.332 120.918H164.318C166.918 120.918 169.026 123.026 169.026 125.626C169.026 128.226 166.918 130.334 164.318 130.334Z" fill="#AC5539"/>
<path d="M164.318 191.541H153.332C150.732 191.541 148.624 189.433 148.624 186.833C148.624 184.232 150.732 182.125 153.332 182.125H164.318C166.918 182.125 169.026 184.232 169.026 186.833C169.026 189.433 166.918 191.541 164.318 191.541Z" fill="#AC5539"/>
<path d="M156 60.1209V277.416H126.206V60.1209C126.206 49.0973 132.195 39.4673 141.103 34.3132C143.363 35.6191 145.441 37.22 147.274 39.053C152.667 44.4459 156 51.8974 156 60.1209Z" fill="#AC5539"/>
<path d="M156 256.807V277.417H126.206V249.845C136.244 251.916 146.176 254.233 156 256.807Z" fill="#AC5539"/>
<path d="M156 138.661V148.078H147.682C145.083 148.078 142.974 145.969 142.974 143.37C142.974 140.771 145.083 138.661 147.682 138.661H156V138.661Z" fill="#AC5539"/>
<path d="M156 193.904V203.321H147.682C145.083 203.321 142.974 201.212 142.974 198.613C142.974 196.014 145.083 193.905 147.682 193.905H156V193.904Z" fill="#AC5539"/>
<path d="M156 215.393V224.809H147.682C145.083 224.809 142.974 222.706 142.974 220.101C142.974 217.502 145.083 215.393 147.682 215.393H156V215.393Z" fill="#AC5539"/>
<path d="M210.93 162.849V171.763C210.93 174.368 208.821 176.471 206.222 176.471C203.623 176.471 201.514 174.368 201.514 171.763V162.849H210.93Z" fill="#AC5539"/>
<path d="M81.936 122.81L76.6752 128.07C74.0385 126.325 71.6845 124.172 69.7198 121.711L75.2755 116.155C77.1146 114.316 80.0969 114.316 81.936 116.155C83.7757 117.995 83.7757 120.97 81.936 122.81Z" fill="#AC5539"/>
<path d="M249.895 179.007C248.708 181.97 247.07 184.707 245.061 187.124L236.913 181.33C234.791 179.823 234.295 176.885 235.802 174.77C237.308 172.648 240.247 172.152 242.369 173.659L249.895 179.007Z" fill="#AC5539"/>
</svg>
