<svg xmlns="http://www.w3.org/2000/svg" style="display: none;"><symbol id="loupe" viewBox="0 0 513.28 513.28"><title>loupe</title><path d="M495.04,404.48L410.56,320c15.36-30.72,25.6-66.56,25.6-102.4C436.16,97.28,338.88,0,218.56,0S0.96,97.28,0.96,217.6 s97.28,217.6,217.6,217.6c35.84,0,71.68-10.24,102.4-25.6l84.48,84.48c25.6,25.6,64,25.6,89.6,0 C518.08,468.48,518.08,430.08,495.04,404.48z M218.56,384c-92.16,0-166.4-74.24-166.4-166.4S126.4,51.2,218.56,51.2 s166.4,74.24,166.4,166.4S310.72,384,218.56,384z"/></symbol><symbol id="bookmark" viewBox="0 0 512 512"><title>bookmark</title><path d="M406,0H106C94.954,0,86,8.954,86,20v471.999c0,8.27,5.089,15.686,12.805,18.661c7.714,2.974,16.465,0.895,22.018-5.234 L256,356.2l135.177,149.226c5.552,6.13,14.302,8.209,22.018,5.234c7.716-2.975,12.805-10.391,12.805-18.661V20 C426,8.954,417.046,0,406,0z M386,440.13L270.823,312.983c-3.792-4.185-9.176-6.573-14.823-6.573 c-5.647,0-11.031,2.387-14.823,6.573L126,440.13V40h260V440.13z"/></symbol><symbol id="information" viewBox="0 0 512 512"><title>information</title><circle cx="256" cy="378.5" r="25"/><path d="M256,0C114.516,0,0,114.497,0,256c0,141.484,114.497,256,256,256c141.484,0,256-114.497,256-256 C512,114.516,397.503,0,256,0z M256,472c-119.377,0-216-96.607-216-216c0-119.377,96.607-216,216-216 c119.377,0,216,96.607,216,216C472,375.377,375.393,472,256,472z"/><path d="M256,128.5c-44.112,0-80,35.888-80,80c0,11.046,8.954,20,20,20s20-8.954,20-20c0-22.056,17.944-40,40-40 c22.056,0,40,17.944,40,40c0,22.056-17.944,40-40,40c-11.046,0-20,8.954-20,20v50c0,11.046,8.954,20,20,20 c11.046,0,20-8.954,20-20v-32.531c34.466-8.903,60-40.26,60-77.469C336,164.388,300.112,128.5,256,128.5z"/></symbol><symbol id="pencil" viewBox="0 0 469.336 469.336"><title>pencil</title><path d="M347.878,151.357c-4-4.003-11.083-4.003-15.083,0L129.909,354.414c-2.427,2.429-3.531,5.87-2.99,9.258 c0.552,3.388,2.698,6.307,5.76,7.84l16.656,8.34v28.049l-51.031,14.602l-51.51-51.554l14.59-51.075h28.025l8.333,16.67 c1.531,3.065,4.448,5.213,7.833,5.765c0.573,0.094,1.146,0.135,1.708,0.135c2.802,0,5.531-1.105,7.542-3.128L317.711,136.26 c2-2.002,3.125-4.712,3.125-7.548c0-2.836-1.125-5.546-3.125-7.548l-39.229-39.263c-2-2.002-4.708-3.128-7.542-3.128h-0.021 c-2.844,0.01-5.563,1.147-7.552,3.159L45.763,301.682c-0.105,0.107-0.1,0.27-0.201,0.379c-1.095,1.183-2.009,2.549-2.487,4.208 l-18.521,64.857L0.409,455.73c-1.063,3.722-0.021,7.736,2.719,10.478c2.031,2.033,4.75,3.128,7.542,3.128 c0.979,0,1.958-0.136,2.927-0.407l84.531-24.166l64.802-18.537c0.195-0.056,0.329-0.203,0.52-0.27 c0.673-0.232,1.262-0.61,1.881-0.976c0.608-0.361,1.216-0.682,1.73-1.146c0.138-0.122,0.319-0.167,0.452-0.298l219.563-217.789 c2.01-1.991,3.146-4.712,3.156-7.558c0.01-2.836-1.115-5.557-3.125-7.569L347.878,151.357z"/><path d="M456.836,76.168l-64-64.054c-16.125-16.139-44.177-16.17-60.365,0.031l-39.073,39.461 c-4.135,4.181-4.125,10.905,0.031,15.065l108.896,108.988c2.083,2.085,4.813,3.128,7.542,3.128c2.719,0,5.427-1.032,7.51-3.096 l39.458-39.137c8.063-8.069,12.5-18.787,12.5-30.192S464.899,84.237,456.836,76.168z"/></symbol><symbol id="email" viewBox="0 0 512 512"><title>email</title><g> <g> <polygon points="339.392,258.624 512,367.744 512,144.896 "/> </g> </g><g> <g> <polygon points="0,144.896 0,367.744 172.608,258.624 "/> </g> </g><g> <g> <path d="M480,80H32C16.032,80,3.36,91.904,0.96,107.232L256,275.264l255.04-168.032C508.64,91.904,495.968,80,480,80z"/> </g> </g><g> <g> <path d="M310.08,277.952l-45.28,29.824c-2.688,1.76-5.728,2.624-8.8,2.624c-3.072,0-6.112-0.864-8.8-2.624l-45.28-29.856 L1.024,404.992C3.488,420.192,16.096,432,32,432h448c15.904,0,28.512-11.808,30.976-27.008L310.08,277.952z"/> </g> </g></symbol><symbol id="chat-bubble" viewBox="0 0 465.882 465.882"><title>chat-bubble</title><path d="m436.765 0h-291.177c-16.082 0-29.118 13.036-29.118 29.118v58.235h203.824c32.118 0 58.235 26.118 58.235 58.235v169.852l58.235 33.971-19.412-87.353h19.412c16.082 0 29.118-13.038 29.118-29.118v-203.822c0-16.082-13.035-29.118-29.117-29.118z"/><path d="m320.294 116.471h-291.176c-16.082 0-29.118 13.035-29.118 29.117v203.824c0 16.08 13.036 29.118 29.118 29.118h77.648l-19.412 87.353 149.749-87.353h83.193c16.082 0 29.118-13.038 29.118-29.118v-203.824c-.002-16.082-13.038-29.117-29.12-29.117zm-218.382 174.705c-8.04 0-14.559-6.519-14.559-14.559 0-8.042 6.519-14.559 14.559-14.559 8.042 0 14.559 6.517 14.559 14.559 0 8.041-6.517 14.559-14.559 14.559zm72.794 0c-8.04 0-14.559-6.519-14.559-14.559 0-8.042 6.519-14.559 14.559-14.559 8.042 0 14.559 6.517 14.559 14.559 0 8.041-6.517 14.559-14.559 14.559zm72.794 0c-8.04 0-14.559-6.519-14.559-14.559 0-8.042 6.519-14.559 14.559-14.559 8.042 0 14.559 6.517 14.559 14.559 0 8.041-6.517 14.559-14.559 14.559z"/></symbol><symbol id="user" viewBox="0 0 512 512"><title>user</title><path d="M256,0C114.844,0,0,114.844,0,256s114.844,256,256,256s256-114.844,256-256S397.156,0,256,0z M256,74.667 c67.635,0,122.667,55.031,122.667,122.667S323.635,320,256,320s-122.667-55.031-122.667-122.667S188.365,74.667,256,74.667z M256,469.333c-69.707,0-131.52-33.755-170.473-85.615c42.676-20.534,103.621-42.385,170.473-42.385 c66.857,0,127.807,21.854,170.474,42.383C387.521,435.577,325.708,469.333,256,469.333z"/></symbol><symbol id="file" viewBox="-79 0 512 512"><title>file</title><path d="m353.101562 485.515625h-353.101562v-485.515625h273.65625l79.445312 79.449219zm0 0" fill="#e3e4d8"/><path d="m273.65625 0v79.449219h79.445312zm0 0" fill="#d0cebd"/><path d="m0 353.101562h353.101562v158.898438h-353.101562zm0 0" fill="#b53438"/><g fill="#fff"><path d="m52.964844 485.515625c-4.871094 0-8.828125-3.953125-8.828125-8.824219v-88.277344c0-4.875 3.957031-8.828124 8.828125-8.828124 4.875 0 8.828125 3.953124 8.828125 8.828124v88.277344c0 4.871094-3.953125 8.824219-8.828125 8.824219zm0 0"/><path d="m300.136719 397.242188h-52.964844c-4.871094 0-8.828125-3.957032-8.828125-8.828126 0-4.875 3.957031-8.828124 8.828125-8.828124h52.964844c4.875 0 8.828125 3.953124 8.828125 8.828124 0 4.871094-3.953125 8.828126-8.828125 8.828126zm0 0"/><path d="m300.136719 441.378906h-52.964844c-4.871094 0-8.828125-3.953125-8.828125-8.828125 0-4.871093 3.957031-8.828125 8.828125-8.828125h52.964844c4.875 0 8.828125 3.957032 8.828125 8.828125 0 4.875-3.953125 8.828125-8.828125 8.828125zm0 0"/><path d="m247.171875 485.515625c-4.871094 0-8.828125-3.953125-8.828125-8.824219v-88.277344c0-4.875 3.957031-8.828124 8.828125-8.828124 4.875 0 8.828125 3.953124 8.828125 8.828124v88.277344c0 4.871094-3.953125 8.824219-8.828125 8.824219zm0 0"/></g><path d="m170.203125 95.136719c-.863281.28125-11.695313 15.261719.847656 27.9375 8.351563-18.371094-.464843-28.054688-.847656-27.9375m5.34375 73.523437c-6.296875 21.496094-14.601563 44.703125-23.527344 65.710938 18.378907-7.042969 38.375-13.195313 57.140625-17.546875-11.871094-13.621094-23.738281-30.632813-33.613281-48.164063m65.710937 57.175782c7.167969 5.445312 8.914063 8.199218 13.613282 8.199218 2.054687 0 7.925781-.085937 10.636718-3.828125 1.316407-1.820312 1.828126-2.984375 2.019532-3.59375-1.074219-.574219-2.515625-1.710937-10.335938-1.710937-4.449218 0-10.027344.191406-15.933594.933594m-119.957031 38.601562c-18.804687 10.425781-26.464843 19-27.011719 23.835938-.089843.804687-.328124 2.90625 3.785157 6.011718 1.316406-.414062 8.96875-3.859375 23.226562-29.847656m-23.421875 44.527344c-3.0625 0-6-.980469-8.507812-2.832032-9.15625-6.796874-10.390625-14.347656-9.808594-19.492187 1.597656-14.132813 19.304688-28.945313 52.648438-44.03125 13.230468-28.636719 25.820312-63.921875 33.324218-93.398437-8.773437-18.871094-17.3125-43.351563-11.097656-57.714844 2.179688-5.03125 4.910156-8.894532 9.976562-10.566406 2.011719-.652344 7.078126-1.480469 8.941407-1.480469 4.617187 0 9.050781 5.507812 11.183593 9.089843 3.972657 6.648438 3.992188 14.390626 3.363282 21.859376-.609375 7.253906-1.84375 14.46875-3.265625 21.601562-1.039063 5.242188-2.214844 10.460938-3.46875 15.660156 11.855469 24.175782 28.644531 48.816406 44.746093 65.683594 11.539063-2.054688 21.460938-3.097656 29.546876-3.097656 13.761718 0 22.121093 3.167968 25.519531 9.691406 2.828125 5.402344 1.660156 11.726562-3.433594 18.769531-4.898437 6.769531-11.640625 10.34375-19.523437 10.34375-10.710938 0-23.15625-6.671875-37.050782-19.851562-24.957031 5.15625-54.097656 14.34375-77.65625 24.515625-7.355468 15.410156-14.398437 27.824218-20.964844 36.933594-8.996093 12.5-16.773437 18.316406-24.472656 18.316406" fill="#b53438"/><path d="m79.449219 450.207031h-26.484375c-4.871094 0-8.828125-3.953125-8.828125-8.828125v-52.964844c0-4.875 3.957031-8.828124 8.828125-8.828124h26.484375c19.472656 0 35.308593 15.835937 35.308593 35.3125 0 19.472656-15.835937 35.308593-35.308593 35.308593zm-17.65625-17.65625h17.65625c9.734375 0 17.652343-7.917969 17.652343-17.652343 0-9.738282-7.917968-17.65625-17.652343-17.65625h-17.65625zm0 0" fill="#fff"/><path d="m158.898438 485.515625h-8.828126c-4.875 0-8.828124-3.953125-8.828124-8.824219v-88.277344c0-4.875 3.953124-8.828124 8.828124-8.828124h8.828126c29.199218 0 52.964843 23.753906 52.964843 52.964843 0 29.210938-23.765625 52.964844-52.964843 52.964844zm0-17.652344h.085937zm0-70.621093v70.621093c19.472656 0 35.308593-15.839843 35.308593-35.3125 0-19.472656-15.835937-35.308593-35.308593-35.308593zm0 0" fill="#fff"/></symbol><symbol id="file-1" viewBox="-79 0 512 512"><title>file-1</title><path d="m353.101562 485.515625h-353.101562v-485.515625h273.65625l79.445312 79.449219zm0 0" fill="#e3e4d8"/><path d="m273.65625 0v79.449219h79.445312zm0 0" fill="#d0cebd"/><path d="m0 353.101562h353.101562v158.898438h-353.101562zm0 0" fill="#2c81e4"/><path d="m300.136719 485.515625h-35.230469c-14.644531 0-26.5625-11.914063-26.5625-26.5625v-52.804687c0-14.644532 11.917969-26.5625 26.5625-26.5625h35.230469c4.875 0 8.828125 3.953124 8.828125 8.828124 0 4.871094-3.953125 8.828126-8.828125 8.828126h-35.230469c-4.917969 0-8.90625 4-8.90625 8.90625v52.804687c0 4.910156 3.988281 8.910156 8.90625 8.910156h35.230469c4.875 0 8.828125 3.953125 8.828125 8.828125 0 4.871094-3.953125 8.824219-8.828125 8.824219zm0 0" fill="#fff"/><path d="m79.449219 132.414062h194.207031v167.722657h-194.207031zm0 0" fill="#2c81e4"/><g fill="#fff"><path d="m203.035156 264.828125c-3.796875 0-7.167968-2.429687-8.378906-6.039063l-18.105469-54.324218-18.105469 54.324218c-1.207031 3.609376-4.582031 6.039063-8.375 6.039063-3.796874 0-7.167968-2.429687-8.378906-6.039063l-26.484375-79.449218c-1.542969-4.625.964844-9.621094 5.589844-11.164063 4.617187-1.546875 9.621094.953125 11.167969 5.578125l18.105468 54.332032 18.105469-54.324219c1.207031-3.609375 4.582031-6.039063 8.375-6.039063 3.796875 0 7.167969 2.429688 8.378907 6.039063l18.105468 54.324219 18.105469-54.324219c1.542969-4.625 6.566406-7.113281 11.167969-5.578125 4.625 1.542968 7.121094 6.539062 5.585937 11.167968l-26.484375 79.445313c-1.207031 3.601563-4.578125 6.03125-8.375 6.03125zm0 0"/><path d="m61.792969 485.515625h-8.828125c-4.871094 0-8.828125-3.953125-8.828125-8.824219v-88.277344c0-4.875 3.957031-8.828124 8.828125-8.828124h8.828125c29.203125 0 52.964843 23.753906 52.964843 52.964843 0 29.210938-23.761718 52.964844-52.964843 52.964844zm0-17.652344h.089843zm0-70.621093v70.621093c19.472656 0 35.308593-15.839843 35.308593-35.3125 0-19.472656-15.835937-35.308593-35.308593-35.308593zm0 0"/><path d="m185.378906 485.515625h-17.65625c-14.597656 0-26.480468-11.878906-26.480468-26.480469v-52.964844c0-14.601562 11.871093-26.484374 26.480468-26.484374h17.65625c14.601563 0 26.484375 11.882812 26.484375 26.484374v52.964844c0 14.601563-11.875 26.480469-26.484375 26.480469zm-17.65625-88.273437c-4.863281 0-8.824218 3.953124-8.824218 8.828124v52.964844c0 4.863282 3.953124 8.828125 8.824218 8.828125h17.65625c4.863282 0 8.828125-3.957031 8.828125-8.828125v-52.964844c0-4.867187-3.953125-8.828124-8.828125-8.828124zm0 0"/></g></symbol><symbol id="file-2" viewBox="-79 0 512 512"><title>file-2</title><path d="m353.101562 485.515625h-353.101562v-485.515625h273.65625l79.445312 79.449219zm0 0" fill="#e3e4d8"/><path d="m273.65625 0v79.449219h79.445312zm0 0" fill="#d0cebd"/><path d="m0 353.101562h353.101562v158.898438h-353.101562zm0 0" fill="#4e74ba"/><g fill="#a09893"><path d="m123.585938 229.515625h-70.621094c-4.871094 0-8.828125-3.953125-8.828125-8.824219 0-4.875 3.957031-8.828125 8.828125-8.828125h70.621094c4.875 0 8.828124 3.953125 8.828124 8.828125 0 4.871094-3.953124 8.824219-8.828124 8.824219zm0 0"/><path d="m247.171875 229.515625h-88.273437c-4.875 0-8.828126-3.953125-8.828126-8.824219 0-4.875 3.953126-8.828125 8.828126-8.828125h88.273437c4.875 0 8.828125 3.953125 8.828125 8.828125 0 4.871094-3.953125 8.824219-8.828125 8.824219zm0 0"/><path d="m220.691406 264.828125h-97.105468c-4.871094 0-8.828126-3.957031-8.828126-8.828125s3.957032-8.828125 8.828126-8.828125h97.105468c4.871094 0 8.824219 3.957031 8.824219 8.828125s-3.953125 8.828125-8.824219 8.828125zm0 0"/><path d="m300.136719 229.515625h-17.652344c-4.875 0-8.828125-3.953125-8.828125-8.824219 0-4.875 3.953125-8.828125 8.828125-8.828125h17.652344c4.875 0 8.828125 3.953125 8.828125 8.828125 0 4.871094-3.953125 8.824219-8.828125 8.824219zm0 0"/><path d="m300.136719 264.828125h-44.136719c-4.871094 0-8.828125-3.957031-8.828125-8.828125s3.957031-8.828125 8.828125-8.828125h44.136719c4.875 0 8.828125 3.957031 8.828125 8.828125s-3.953125 8.828125-8.828125 8.828125zm0 0"/><path d="m88.277344 264.828125h-35.3125c-4.871094 0-8.828125-3.957031-8.828125-8.828125s3.957031-8.828125 8.828125-8.828125h35.3125c4.871094 0 8.824218 3.957031 8.824218 8.828125s-3.953124 8.828125-8.824218 8.828125zm0 0"/><path d="m123.585938 300.136719h-70.621094c-4.871094 0-8.828125-3.953125-8.828125-8.828125 0-4.871094 3.957031-8.824219 8.828125-8.824219h70.621094c4.875 0 8.828124 3.953125 8.828124 8.824219 0 4.875-3.953124 8.828125-8.828124 8.828125zm0 0"/><path d="m247.171875 300.136719h-88.273437c-4.875 0-8.828126-3.953125-8.828126-8.828125 0-4.871094 3.953126-8.824219 8.828126-8.824219h88.273437c4.875 0 8.828125 3.953125 8.828125 8.824219 0 4.875-3.953125 8.828125-8.828125 8.828125zm0 0"/><path d="m300.136719 300.136719h-17.652344c-4.875 0-8.828125-3.953125-8.828125-8.828125 0-4.871094 3.953125-8.824219 8.828125-8.824219h17.652344c4.875 0 8.828125 3.953125 8.828125 8.824219 0 4.875-3.953125 8.828125-8.828125 8.828125zm0 0"/><path d="m300.136719 194.207031h-70.621094c-4.871094 0-8.824219-3.953125-8.824219-8.828125 0-4.871094 3.953125-8.828125 8.824219-8.828125h70.621094c4.875 0 8.828125 3.957031 8.828125 8.828125 0 4.875-3.953125 8.828125-8.828125 8.828125zm0 0"/><path d="m194.207031 194.207031h-88.277343c-4.871094 0-8.828126-3.953125-8.828126-8.828125 0-4.871094 3.957032-8.828125 8.828126-8.828125h88.277343c4.871094 0 8.828125 3.957031 8.828125 8.828125 0 4.875-3.957031 8.828125-8.828125 8.828125zm0 0"/><path d="m229.515625 158.898438h-97.101563c-4.875 0-8.828124-3.957032-8.828124-8.828126 0-4.875 3.953124-8.828124 8.828124-8.828124h97.101563c4.875 0 8.828125 3.953124 8.828125 8.828124 0 4.871094-3.953125 8.828126-8.828125 8.828126zm0 0"/><path d="m70.621094 194.207031h-17.65625c-4.871094 0-8.828125-3.953125-8.828125-8.828125 0-4.871094 3.957031-8.828125 8.828125-8.828125h17.65625c4.871094 0 8.828125 3.957031 8.828125 8.828125 0 4.875-3.957031 8.828125-8.828125 8.828125zm0 0"/><path d="m97.101562 158.898438h-44.136718c-4.871094 0-8.828125-3.957032-8.828125-8.828126 0-4.875 3.957031-8.828124 8.828125-8.828124h44.136718c4.875 0 8.828126 3.953124 8.828126 8.828124 0 4.871094-3.953126 8.828126-8.828126 8.828126zm0 0"/><path d="m300.136719 158.898438h-35.308594c-4.875 0-8.828125-3.957032-8.828125-8.828126 0-4.875 3.953125-8.828124 8.828125-8.828124h35.308594c4.875 0 8.828125 3.953124 8.828125 8.828124 0 4.871094-3.953125 8.828126-8.828125 8.828126zm0 0"/></g><path d="m105.929688 397.242188h-52.964844c-4.871094 0-8.828125-3.957032-8.828125-8.828126 0-4.875 3.957031-8.828124 8.828125-8.828124h52.964844c4.875 0 8.828124 3.953124 8.828124 8.828124 0 4.871094-3.953124 8.828126-8.828124 8.828126zm0 0" fill="#fff"/><path d="m79.449219 485.515625c-4.875 0-8.828125-3.953125-8.828125-8.824219v-88.277344c0-4.875 3.953125-8.828124 8.828125-8.828124 4.871093 0 8.828125 3.953124 8.828125 8.828124v88.277344c0 4.871094-3.957032 8.824219-8.828125 8.824219zm0 0" fill="#fff"/><path d="m150.058594 485.515625c-1.542969 0-3.113282-.40625-4.527344-1.261719-4.183594-2.507812-5.535156-7.925781-3.027344-12.109375l52.964844-88.277343c2.507812-4.183594 7.9375-5.535157 12.113281-3.027344 4.183594 2.507812 5.535157 7.925781 3.027344 12.113281l-52.964844 88.273437c-1.660156 2.761719-4.582031 4.289063-7.585937 4.289063zm0 0" fill="#fff"/><path d="m203.042969 485.515625c-3 0-5.921875-1.527344-7.574219-4.28125l-52.964844-88.273437c-2.507812-4.183594-1.15625-9.605469 3.027344-12.113282 4.175781-2.515625 9.605469-1.15625 12.113281 3.027344l52.964844 88.277344c2.507813 4.183594 1.15625 9.605468-3.027344 12.113281-1.421875.84375-2.992187 1.25-4.539062 1.25zm0 0" fill="#fff"/><path d="m300.136719 397.242188h-52.964844c-4.871094 0-8.828125-3.957032-8.828125-8.828126 0-4.875 3.957031-8.828124 8.828125-8.828124h52.964844c4.875 0 8.828125 3.953124 8.828125 8.828124 0 4.871094-3.953125 8.828126-8.828125 8.828126zm0 0" fill="#fff"/><path d="m273.65625 485.515625c-4.875 0-8.828125-3.953125-8.828125-8.824219v-88.277344c0-4.875 3.953125-8.828124 8.828125-8.828124 4.871094 0 8.828125 3.953124 8.828125 8.828124v88.277344c0 4.871094-3.957031 8.824219-8.828125 8.824219zm0 0" fill="#fff"/></symbol><symbol id="file-3" viewBox="-79 0 512 512"><title>file-3</title><path d="m353.101562 485.515625h-353.101562v-485.515625h273.65625l79.445312 79.449219zm0 0" fill="#e3e4d8"/><path d="m61.792969 114.757812h229.515625v194.207032h-229.515625zm0 0" fill="#fff"/><path d="m273.65625 0v79.449219h79.445312zm0 0" fill="#d0cebd"/><path d="m0 353.101562h353.101562v158.898438h-353.101562zm0 0" fill="#b53438"/><path d="m214.386719 203.035156-53.414063 56.082032-22.257812-20.773438-76.921875 70.621094h229.515625v-26.480469zm0 0" fill="#b53438"/><path d="m141.242188 172.136719c0 12.191406-9.882813 22.070312-22.070313 22.070312s-22.070313-9.878906-22.070313-22.070312c0-12.1875 9.882813-22.066407 22.070313-22.066407s22.070313 9.878907 22.070313 22.066407zm0 0" fill="#eacd3b"/><g fill="#fff"><path d="m282.449219 485.515625h-17.550781c-14.636719 0-26.554688-11.914063-26.554688-26.5625v-52.804687c0-14.644532 11.917969-26.5625 26.5625-26.5625h35.230469c4.875 0 8.828125 3.953124 8.828125 8.828124 0 4.871094-3.953125 8.828126-8.828125 8.828126h-35.230469c-4.917969 0-8.90625 4-8.90625 8.90625v52.804687c0 4.910156 3.988281 8.910156 8.90625 8.910156h17.550781c4.882813 0 8.851563-3.972656 8.851563-8.855469v-26.457031c0-4.871093 3.957031-8.828125 8.828125-8.828125 4.875 0 8.828125 3.957032 8.828125 8.828125v26.457031c0 14.617188-11.890625 26.507813-26.515625 26.507813zm0 0"/><path d="m300.136719 441.378906h-17.652344c-4.875 0-8.828125-3.953125-8.828125-8.828125 0-4.871093 3.953125-8.828125 8.828125-8.828125h17.652344c4.875 0 8.828125 3.957032 8.828125 8.828125 0 4.875-3.953125 8.828125-8.828125 8.828125zm0 0"/><path d="m150.070312 485.515625c-4.875 0-8.828124-3.953125-8.828124-8.824219v-88.277344c0-4.875 3.953124-8.828124 8.828124-8.828124 4.871094 0 8.828126 3.953124 8.828126 8.828124v88.277344c0 4.871094-3.957032 8.824219-8.828126 8.824219zm0 0"/><path d="m176.550781 450.207031h-26.480469c-4.875 0-8.828124-3.953125-8.828124-8.828125v-52.964844c0-4.875 3.953124-8.828124 8.828124-8.828124h26.480469c19.472657 0 35.3125 15.835937 35.3125 35.3125 0 19.472656-15.839843 35.308593-35.3125 35.308593zm-17.652343-17.65625h17.652343c9.738281 0 17.65625-7.917969 17.65625-17.652343 0-9.738282-7.917969-17.65625-17.65625-17.65625h-17.652343zm0 0"/><path d="m79.449219 485.515625c-19.472657 0-35.3125-15.835937-35.3125-35.308594 0-4.871093 3.957031-8.828125 8.828125-8.828125 4.875 0 8.828125 3.957032 8.828125 8.828125 0 9.738281 7.917969 17.65625 17.65625 17.65625 9.734375 0 17.652343-7.917969 17.652343-17.65625v-61.792969c0-4.875 3.957032-8.828124 8.828126-8.828124 4.875 0 8.828124 3.953124 8.828124 8.828124v61.792969c0 19.472657-15.835937 35.308594-35.308593 35.308594zm0 0"/></g></symbol><symbol id="clock" viewBox="0 0 512 512"><title>clock</title><path d="m256 512c-141.164062 0-256-114.835938-256-256s114.835938-256 256-256 256 114.835938 256 256-114.835938 256-256 256zm0-480c-123.519531 0-224 100.480469-224 224s100.480469 224 224 224 224-100.480469 224-224-100.480469-224-224-224zm0 0"/><path d="m368 394.667969c-4.097656 0-8.191406-1.558594-11.308594-4.695313l-112-112c-3.007812-3.007812-4.691406-7.082031-4.691406-11.304687v-149.335938c0-8.832031 7.167969-16 16-16s16 7.167969 16 16v142.699219l107.308594 107.308594c6.25 6.25 6.25 16.382812 0 22.632812-3.117188 3.136719-7.210938 4.695313-11.308594 4.695313zm0 0"/></symbol><symbol id="cancel" viewBox="0 0 492 492"><title>cancel</title><path d="M300.188,246L484.14,62.04c5.06-5.064,7.852-11.82,7.86-19.024c0-7.208-2.792-13.972-7.86-19.028L468.02,7.872 c-5.068-5.076-11.824-7.856-19.036-7.856c-7.2,0-13.956,2.78-19.024,7.856L246.008,191.82L62.048,7.872 c-5.06-5.076-11.82-7.856-19.028-7.856c-7.2,0-13.96,2.78-19.02,7.856L7.872,23.988c-10.496,10.496-10.496,27.568,0,38.052 L191.828,246L7.872,429.952c-5.064,5.072-7.852,11.828-7.852,19.032c0,7.204,2.788,13.96,7.852,19.028l16.124,16.116 c5.06,5.072,11.824,7.856,19.02,7.856c7.208,0,13.968-2.784,19.028-7.856l183.96-183.952l183.952,183.952 c5.068,5.072,11.824,7.856,19.024,7.856h0.008c7.204,0,13.96-2.784,19.028-7.856l16.12-16.116 c5.06-5.064,7.852-11.824,7.852-19.028c0-7.204-2.792-13.96-7.852-19.028L300.188,246z"/></symbol><symbol id="logout" viewBox="0 0 512.00533 512"><title>logout</title><path d="m320 277.335938c-11.796875 0-21.332031 9.558593-21.332031 21.332031v85.335937c0 11.753906-9.558594 21.332032-21.335938 21.332032h-64v-320c0-18.21875-11.605469-34.496094-29.054687-40.554688l-6.316406-2.113281h99.371093c11.777344 0 21.335938 9.578125 21.335938 21.335937v64c0 11.773438 9.535156 21.332032 21.332031 21.332032s21.332031-9.558594 21.332031-21.332032v-64c0-35.285156-28.714843-63.99999975-64-63.99999975h-229.332031c-.8125 0-1.492188.36328175-2.28125.46874975-1.027344-.085937-2.007812-.46874975-3.050781-.46874975-23.53125 0-42.667969 19.13281275-42.667969 42.66406275v384c0 18.21875 11.605469 34.496093 29.054688 40.554687l128.386718 42.796875c4.351563 1.34375 8.679688 1.984375 13.226563 1.984375 23.53125 0 42.664062-19.136718 42.664062-42.667968v-21.332032h64c35.285157 0 64-28.714844 64-64v-85.335937c0-11.773438-9.535156-21.332031-21.332031-21.332031zm0 0"/><path d="m505.75 198.253906-85.335938-85.332031c-6.097656-6.101563-15.273437-7.9375-23.25-4.632813-7.957031 3.308594-13.164062 11.09375-13.164062 19.714844v64h-85.332031c-11.777344 0-21.335938 9.554688-21.335938 21.332032 0 11.777343 9.558594 21.332031 21.335938 21.332031h85.332031v64c0 8.621093 5.207031 16.40625 13.164062 19.714843 7.976563 3.304688 17.152344 1.46875 23.25-4.628906l85.335938-85.335937c8.339844-8.339844 8.339844-21.824219 0-30.164063zm0 0"/></symbol><symbol id="down-arrow" viewBox="0 0 491.996 491.996"><title>down-arrow</title><path d="M484.132,124.986l-16.116-16.228c-5.072-5.068-11.82-7.86-19.032-7.86c-7.208,0-13.964,2.792-19.036,7.86l-183.84,183.848 L62.056,108.554c-5.064-5.068-11.82-7.856-19.028-7.856s-13.968,2.788-19.036,7.856l-16.12,16.128 c-10.496,10.488-10.496,27.572,0,38.06l219.136,219.924c5.064,5.064,11.812,8.632,19.084,8.632h0.084 c7.212,0,13.96-3.572,19.024-8.632l218.932-219.328c5.072-5.064,7.856-12.016,7.864-19.224 C491.996,136.902,489.204,130.046,484.132,124.986z"/></symbol><symbol id="confirm" viewBox="0 0 492 492"><title>confirm</title><path d="M484.128,104.478l-16.116-16.116c-5.064-5.068-11.816-7.856-19.024-7.856c-7.208,0-13.964,2.788-19.028,7.856 L203.508,314.81L62.024,173.322c-5.064-5.06-11.82-7.852-19.028-7.852c-7.204,0-13.956,2.792-19.024,7.852l-16.12,16.112 C2.784,194.51,0,201.27,0,208.47c0,7.204,2.784,13.96,7.852,19.028l159.744,159.736c0.212,0.3,0.436,0.58,0.696,0.836 l16.12,15.852c5.064,5.048,11.82,7.572,19.084,7.572h0.084c7.212,0,13.968-2.524,19.024-7.572l16.124-15.992 c0.26-0.256,0.48-0.468,0.612-0.684l244.784-244.76C494.624,132.01,494.624,114.966,484.128,104.478z"/></symbol><symbol id="group" viewBox="0 0 511.999 511.999"><title>group</title><g> <g> <path d="M438.09,273.32h-39.596c4.036,11.05,6.241,22.975,6.241,35.404v149.65c0,5.182-0.902,10.156-2.543,14.782h65.461 c24.453,0,44.346-19.894,44.346-44.346v-81.581C512,306.476,478.844,273.32,438.09,273.32z"/> </g> </g><g> <g> <path d="M107.265,308.725c0-12.43,2.205-24.354,6.241-35.404H73.91c-40.754,0-73.91,33.156-73.91,73.91v81.581 c0,24.452,19.893,44.346,44.346,44.346h65.462c-1.641-4.628-2.543-9.601-2.543-14.783V308.725z"/> </g> </g><g> <g> <path d="M301.261,234.815h-90.522c-40.754,0-73.91,33.156-73.91,73.91v149.65c0,8.163,6.618,14.782,14.782,14.782h208.778 c8.164,0,14.782-6.618,14.782-14.782v-149.65C375.171,267.971,342.015,234.815,301.261,234.815z"/> </g> </g><g> <g> <path d="M256,38.84c-49.012,0-88.886,39.874-88.886,88.887c0,33.245,18.349,62.28,45.447,77.524 c12.853,7.23,27.671,11.362,43.439,11.362c15.768,0,30.586-4.132,43.439-11.362c27.099-15.244,45.447-44.28,45.447-77.524 C344.886,78.715,305.012,38.84,256,38.84z"/> </g> </g><g> <g> <path d="M99.918,121.689c-36.655,0-66.475,29.82-66.475,66.475c0,36.655,29.82,66.475,66.475,66.475 c9.298,0,18.152-1.926,26.195-5.388c13.906-5.987,25.372-16.585,32.467-29.86c4.98-9.317,7.813-19.946,7.813-31.227 C166.393,151.51,136.573,121.689,99.918,121.689z"/> </g> </g><g> <g> <path d="M412.082,121.689c-36.655,0-66.475,29.82-66.475,66.475c0,11.282,2.833,21.911,7.813,31.227 c7.095,13.276,18.561,23.874,32.467,29.86c8.043,3.462,16.897,5.388,26.195,5.388c36.655,0,66.475-29.82,66.475-66.475 C478.557,151.509,448.737,121.689,412.082,121.689z"/> </g> </g></symbol><symbol id="visibility" viewBox="0 0 469.333 469.333"><title>visibility</title><path d="M234.667,170.667c-35.307,0-64,28.693-64,64s28.693,64,64,64s64-28.693,64-64S269.973,170.667,234.667,170.667z"/><path d="M234.667,74.667C128,74.667,36.907,141.013,0,234.667c36.907,93.653,128,160,234.667,160 c106.773,0,197.76-66.347,234.667-160C432.427,141.013,341.44,74.667,234.667,74.667z M234.667,341.333 c-58.88,0-106.667-47.787-106.667-106.667S175.787,128,234.667,128s106.667,47.787,106.667,106.667 S293.547,341.333,234.667,341.333z"/></symbol><symbol id="reload" viewBox="0 0 512 512"><title>reload</title><g> <g> <path d="M463.702,162.655L442.491,14.164c-1.744-12.174-16.707-17.233-25.459-8.481l-30.894,30.894 C346.411,12.612,301.309,0,254.932,0C115.464,0,3.491,109.16,0.005,248.511c-0.19,7.617,5.347,14.15,12.876,15.234l59.941,8.569 c8.936,1.304,17.249-5.712,17.125-15.058C88.704,165.286,162.986,90,254.932,90c22.265,0,44.267,4.526,64.6,13.183l-29.78,29.78 c-8.697,8.697-3.761,23.706,8.481,25.459l148.491,21.211C456.508,181.108,465.105,172.599,463.702,162.655z"/> </g> </g><g> <g> <path d="M499.117,249.412l-59.897-8.555c-7.738-0.98-17.124,5.651-17.124,16.143c0,90.981-74.019,165-165,165 c-22.148,0-44.048-4.482-64.306-13.052l28.828-28.828c8.697-8.697,3.761-23.706-8.481-25.459L64.646,333.435 c-9.753-1.393-18.39,6.971-16.978,16.978l21.21,148.492c1.746,12.187,16.696,17.212,25.459,8.481l31.641-31.626 C165.514,499.505,210.587,512,257.096,512c138.794,0,250.752-108.618,254.897-247.28 C512.213,257.088,506.676,250.496,499.117,249.412z"/> </g> </g></symbol><symbol id="menu" viewBox="0 0 512 512"><title>menu</title><circle cx="256" cy="256" r="64"/><circle cx="256" cy="448" r="64"/><circle cx="256" cy="64" r="64"/></symbol><symbol id="closed-eye" viewBox="0 0 54.306 54.306"><title>closed-eye</title><g> <path style="fill:#010002;" d="M27.153,13.141c-10.371,0-19.419,5.638-24.265,14.012c4.846,8.374,13.894,14.012,24.265,14.012 s19.419-5.638,24.265-14.012C46.572,18.779,37.524,13.141,27.153,13.141z"/> <path style="fill:#010002;" d="M27.153,43.665c-10.854,0-20.981-5.848-26.428-15.26L0,27.153l0.724-1.252 c5.447-9.413,15.574-15.26,26.429-15.26c10.854,0,20.981,5.847,26.429,15.26l0.725,1.252l-0.725,1.252 C48.134,37.818,38.007,43.665,27.153,43.665z M5.826,27.153c4.701,7.136,12.743,11.512,21.327,11.512 c8.585,0,16.626-4.376,21.327-11.512c-4.701-7.136-12.742-11.512-21.327-11.512S10.527,20.017,5.826,27.153z"/> </g><g> <circle style="fill:#010002;" cx="28.076" cy="26.343" r="12.188"/> <path style="fill:#010002;" d="M28.076,41.031c-8.099,0-14.688-6.589-14.688-14.688c0-8.099,6.589-14.688,14.688-14.688 s14.688,6.589,14.688,14.688C42.764,34.442,36.175,41.031,28.076,41.031z M28.076,16.655c-5.342,0-9.688,4.346-9.688,9.688 s4.346,9.688,9.688,9.688c5.342,0,9.688-4.346,9.688-9.688S33.418,16.655,28.076,16.655z"/> </g><circle style="fill:#010002;" cx="33.513" cy="22.516" r="5.375"/></symbol><symbol id="bookmark-1" viewBox="-58 0 404 404.54135"><title>bookmark-1</title><path d="m277.527344 0h-267.257813c-5.523437 0-10 4.476562-10 10v374.527344c-.011719 7.503906 4.183594 14.378906 10.855469 17.804687 6.675781 3.429688 14.707031 2.832031 20.796875-1.550781l111.976563-80.265625 111.976562 80.269531c6.097656 4.367188 14.121094 4.960938 20.792969 1.535156 6.667969-3.425781 10.863281-10.292968 10.863281-17.792968v-374.527344c0-5.523438-4.480469-10-10.003906-10zm0 0"/></symbol><symbol id="upload" viewBox="0 0 512 512"><title>upload</title><g> <g> <path d="M380.032,133.472l-112-128C264.992,2.016,260.608,0,256,0c-4.608,0-8.992,2.016-12.032,5.472l-112,128 c-4.128,4.736-5.152,11.424-2.528,17.152C132.032,156.32,137.728,160,144,160h64v208c0,8.832,7.168,16,16,16h64 c8.832,0,16-7.168,16-16V160h64c6.272,0,11.968-3.648,14.56-9.376C385.152,144.896,384.192,138.176,380.032,133.472z"/> </g> </g><g> <g> <path d="M432,352v96H80v-96H16v128c0,17.696,14.336,32,32,32h416c17.696,0,32-14.304,32-32V352H432z"/> </g> </g></symbol></svg>